<svg version="1.1" id="Layer_1" xmlns="http://www.w3.org/2000/svg" xmlns:xlink="http://www.w3.org/1999/xlink" x="0px" y="0px"
	 width="100%" viewBox="0 0 580 738" enable-background="new 0 0 580 738" xml:space="preserve">

<!-- RIGHT WOOD-->
<path fill="#02A9D3" opacity="1.000000" stroke="none" 
	d="
M581.000000,31.000004 
	C581.000000,34.030594 581.000000,37.061188 580.722656,40.801220 
	C579.374756,48.588924 576.795776,54.903507 570.992676,59.456100 
	C565.994690,63.376995 560.894409,67.167450 555.575317,71.333740 
	C555.210327,72.467941 555.021606,73.283943 555.021179,74.100029 
	C555.006897,105.444138 555.001770,136.788269 555.039673,168.132355 
	C555.041199,169.405258 555.469849,170.677643 555.672241,172.323318 
	C553.157959,183.514679 549.047058,193.468338 540.208374,201.159195 
	C539.653381,201.599319 539.422791,201.957458 539.203308,202.227936 
	C539.214478,202.140289 539.368286,202.227341 539.049927,202.281281 
	C538.488342,202.897491 538.245117,203.459747 537.998657,204.009491 
	C537.995422,203.996948 538.021362,203.997650 537.791931,204.106918 
	C537.378113,204.493942 537.193665,204.771698 537.003540,205.023270 
	C536.997742,204.997086 537.050110,205.008850 536.814270,205.115753 
	C536.391846,205.505875 536.205322,205.789108 536.011169,206.040039 
	C536.003601,206.007706 536.069275,206.017426 535.829590,206.120834 
	C535.399902,206.508118 535.209900,206.791992 535.015076,207.041595 
	C535.010254,207.007339 535.078186,207.020493 534.829956,207.123566 
	C534.390686,207.521408 534.199646,207.816162 533.909668,208.369965 
	C533.250000,209.091354 532.689331,209.553696 531.870361,210.120453 
	C531.414062,210.530029 531.216064,210.835159 530.954834,211.356201 
	C530.717651,211.848373 530.467773,211.996689 529.885742,212.108521 
	C529.427490,212.490601 529.225464,212.781235 529.014771,213.039368 
	C529.006165,213.006866 529.071106,213.024445 528.828003,213.121140 
	C528.397766,213.503632 528.210693,213.789429 528.015930,214.041718 
	C528.008301,214.008224 528.075317,214.023560 527.831543,214.119873 
	C527.398987,214.501419 527.210083,214.786636 527.013916,215.039093 
	C527.006653,215.006302 527.072083,215.021225 526.829224,215.119171 
	C526.398132,215.502686 526.209961,215.788254 526.014404,216.040710 
	C526.007019,216.007599 526.073425,216.021423 525.830200,216.119843 
	C525.399170,216.504852 525.211304,216.791443 525.016602,217.043900 
	C525.009827,217.009766 525.078064,217.023254 524.834106,217.121613 
	C524.401489,217.507309 524.212830,217.794632 524.018005,218.046967 
	C524.011841,218.011978 524.081909,218.023727 523.836914,218.124268 
	C523.405212,218.515945 523.218506,218.807114 523.026978,219.060837 
	C523.022095,219.023392 523.097351,219.030090 522.849915,219.131470 
	C522.415283,219.527451 522.228149,219.822037 522.036072,220.074524 
	C522.031189,220.032440 522.115845,220.036438 521.857727,220.146515 
	C521.411377,220.570862 521.223083,220.885132 520.895020,221.494919 
	C514.492920,227.482452 508.879425,234.198273 501.837830,238.660507 
	C485.488953,249.020767 468.395599,258.199738 451.708130,268.034210 
	C436.737488,276.856873 421.537750,285.368683 407.141205,295.060577 
	C397.406219,301.614227 388.888275,309.975739 379.505310,317.372986 
	C374.180817,312.790863 369.176971,308.364380 364.027771,303.688843 
	C363.579437,303.209595 363.276489,302.979431 363.086792,302.440796 
	C368.886353,297.368134 374.634521,292.675354 380.243469,287.821747 
	C387.434845,281.598816 394.514252,275.246490 402.012146,268.731873 
	C402.586212,267.566101 402.966644,266.618652 402.967987,265.670685 
	C403.001160,241.982773 403.010681,218.294754 402.946899,194.606949 
	C402.943695,193.412827 402.245575,192.220566 401.513489,191.011047 
	C398.971191,189.849121 396.608368,188.949265 394.631500,187.516754 
	C384.523499,180.192215 379.302917,170.188156 381.319275,157.810181 
	C383.226501,146.102127 389.850677,137.456039 402.199036,133.705429 
	C402.667633,132.967010 402.937836,132.495956 402.938599,132.024445 
	C402.972565,111.533241 402.989990,91.041977 402.952850,70.550835 
	C402.951935,70.045593 402.314453,69.541512 401.652039,68.899460 
	C383.544098,59.966545 376.490723,43.915226 383.828308,27.813913 
	C389.036255,16.385855 397.931580,11.194877 410.951538,11.530090 
	C421.634979,11.805145 429.979584,14.809222 435.566467,24.164806 
	C435.658417,24.525618 435.866913,24.747684 436.041382,24.981350 
	C436.007324,24.992952 436.041138,24.929476 436.050293,25.243841 
	C436.412811,26.030363 436.766144,26.502520 437.079834,26.970829 
	C437.040222,26.966984 437.070862,26.893505 437.066345,27.211601 
	C437.410767,28.013428 437.759735,28.497160 438.059265,28.986048 
	C438.009827,28.991203 438.003540,28.892021 438.276978,29.214323 
	C439.354889,29.690361 440.159271,29.977510 440.963959,29.978409 
	C463.767517,30.003872 486.571136,30.017502 509.374542,29.954048 
	C510.575989,29.950705 511.775513,29.253983 512.998169,28.506102 
	C517.243408,15.136666 524.580994,5.154898 539.146790,3.357311 
	C552.791504,1.673406 565.838623,3.104396 574.214905,15.947351 
	C577.185730,20.502403 578.778259,25.956396 581.000000,31.000004 
M502.980042,199.020706 
	C502.980042,199.020706 502.970551,199.094757 502.775848,198.603088 
	C502.489410,198.410233 502.202942,198.217392 501.987335,198.013977 
	C501.987335,198.013977 501.974670,198.084473 501.779053,197.593948 
	C501.490662,197.405182 501.202271,197.216415 500.985046,197.014557 
	C500.985046,197.014557 500.972839,197.085892 500.775940,196.594482 
	C500.486084,196.406448 500.196198,196.218430 499.979889,196.019379 
	C499.979889,196.019379 499.970276,196.093155 499.773346,195.601074 
	C499.484680,195.410309 499.195984,195.219528 498.980896,195.019165 
	C498.980896,195.019165 498.971039,195.092712 498.775482,194.600677 
	C498.487518,194.409821 498.199524,194.218964 497.983795,194.016754 
	C497.983795,194.016754 497.971497,194.088837 497.777313,193.596298 
	C497.488342,193.406555 497.199371,193.216797 496.982910,193.016144 
	C496.982910,193.016144 496.975830,193.089142 496.750916,192.585968 
	C496.442505,192.399384 496.134125,192.212799 495.223267,191.750595 
	C494.119476,190.564087 493.015686,189.377579 490.833710,187.032104 
	C497.375336,181.012222 503.762573,175.134415 510.941925,168.527649 
	C497.550079,168.527649 485.458893,168.527649 473.282135,168.527649 
	C473.282135,161.900131 473.282135,155.533264 473.282135,148.713745 
	C485.311157,148.713745 496.994232,148.713745 509.247772,148.713745 
	C503.029388,141.840225 497.303650,135.511276 491.534821,129.134705 
	C496.604736,124.149864 501.198151,119.633537 505.819061,115.090187 
	C515.414001,124.997955 525.194214,135.097061 535.142334,145.821472 
	C539.211243,147.047302 537.844055,143.733459 537.850708,142.222931 
	C537.949524,119.737106 537.944275,97.250641 537.858643,74.764725 
	C537.853760,73.480591 536.945496,72.199890 535.974365,70.362854 
	C533.787292,69.262413 531.605286,68.151932 529.412292,67.063354 
	C521.259766,63.016460 517.462158,55.220871 512.411682,47.403408 
	C512.100159,47.294392 511.788757,47.090393 511.477051,47.089897 
	C488.405243,47.053059 465.333313,47.010170 442.261749,47.080830 
	C441.195557,47.084099 440.132477,48.116707 439.057526,49.370167 
	C436.442932,59.037403 429.749329,64.952522 420.428070,68.803070 
	C420.281860,69.246964 420.008118,69.690735 420.007690,70.134758 
	C419.989075,89.835487 419.979279,109.536278 420.033051,129.236893 
	C420.036469,130.485779 420.556824,131.733276 420.982849,133.403107 
	C420.982849,133.403107 421.025360,133.847366 421.314667,134.408615 
	C421.899261,134.594177 422.483826,134.779739 423.009308,134.995804 
	C423.009308,134.995804 423.011566,134.929352 423.328217,135.469803 
	C423.917389,135.626175 424.506531,135.782532 425.016815,135.967499 
	C425.016815,135.967499 425.045959,135.888809 425.133209,136.259720 
	C425.424103,136.246933 425.714966,136.234146 426.645111,136.378342 
	C447.717285,150.649246 446.189362,178.244675 423.713470,190.155838 
	C422.568604,190.762589 421.786072,192.053085 420.310211,193.661835 
	C420.217743,215.842667 420.119049,238.023499 420.066986,260.204437 
	C420.065613,260.787598 420.572205,261.371979 421.231110,262.437744 
	C423.921844,261.312408 426.756226,260.441742 429.278931,259.018555 
	C441.521881,252.111633 453.664154,245.026535 465.875153,238.062500 
	C477.959595,231.170654 490.742920,225.404297 500.537201,214.995071 
	C508.184113,206.868103 516.429443,199.295959 523.926086,191.038971 
	C528.369080,186.145386 531.875183,180.401154 535.802612,175.039413 
	C535.359192,174.695312 534.915771,174.351227 534.472351,174.007126 
	C527.494690,181.029816 520.516968,188.052490 512.885864,195.235550 
	C512.650208,195.593246 512.414551,195.950928 512.188599,196.147232 
	C512.188599,196.147232 512.331726,196.222488 511.738647,196.321793 
	C511.604462,196.672318 511.470276,197.022842 511.252991,197.146683 
	C511.252991,197.146683 511.397888,197.339798 510.786865,197.345932 
	C510.699829,197.697159 510.612762,198.048386 510.433441,198.414719 
	C510.433441,198.414719 510.418701,198.507034 509.819336,198.391129 
	C509.724487,198.735458 509.629639,199.079803 509.442902,199.441422 
	C509.442902,199.441422 509.470703,199.530685 508.828094,199.404572 
	C508.555023,199.947815 508.281952,200.491074 507.994598,201.001389 
	C507.994598,201.001389 508.029266,201.010269 507.253113,200.995361 
	C506.476288,201.002533 505.699432,201.009720 504.469482,200.903748 
	C504.179199,200.731552 504.015228,200.477737 503.782837,199.633835 
	C503.490448,199.431656 503.198059,199.229477 502.980042,199.020706 
M544.845093,52.995975 
	C555.450867,52.968956 566.637390,40.353577 559.605774,28.873178 
	C556.190674,23.297419 551.274353,20.197248 544.656494,21.076773 
	C537.946350,21.968563 533.710571,26.162348 531.637329,32.526913 
	C529.748291,38.326103 531.345276,43.900002 536.297180,47.891941 
	C538.681091,49.813763 541.446838,51.261841 544.845093,52.995975 
M417.450287,152.771835 
	C413.706512,149.767899 409.656830,150.389679 405.861328,152.301987 
	C401.514740,154.491959 399.280792,158.425537 399.313660,163.261505 
	C399.351715,168.860825 406.381500,176.918610 410.568726,175.847687 
	C415.643677,174.549728 421.013214,172.740097 422.635193,166.787933 
	C424.100250,161.411530 423.022644,156.564606 417.450287,152.771835 
M401.357147,46.994068 
	C402.677856,48.223885 403.868927,49.643543 405.342377,50.649670 
	C410.835632,54.400639 413.113281,54.105881 418.530731,49.247341 
	C423.071045,45.175396 424.182434,40.251690 421.630951,35.512287 
	C418.685028,30.040236 410.774445,27.059128 405.942963,29.600313 
	C399.530060,32.973259 397.593536,39.464279 401.357147,46.994068 
z"/>
<!-- LEFT WOOD-->
<path fill="#03A9D3" opacity="1.000000" stroke="none" 
	d="
M1.000000,39.000000 
	C1.000000,36.299038 1.000000,33.598076 1.336833,30.277929 
	C4.015297,17.112013 11.837083,8.976170 22.951603,3.690603 
	C25.759283,2.355397 28.972914,1.873834 32.000000,1.000000 
	C33.388889,1.000000 34.777779,1.000000 36.794865,1.320936 
	C40.597870,2.304559 43.867699,2.677163 46.930920,3.680524 
	C59.681721,7.857061 68.302170,20.522408 68.951286,33.648365 
	C69.812965,51.072380 61.704250,62.625637 43.738190,69.903931 
	C43.302380,70.092583 43.032528,70.372429 43.032330,70.652481 
	C43.011478,99.817680 42.991302,128.982956 43.075577,158.147919 
	C43.079227,159.410553 44.055073,160.670349 44.728546,162.237274 
	C46.037708,164.869675 46.693443,167.699402 48.436310,169.441513 
	C60.088676,181.088806 71.969185,192.507996 83.833054,203.941650 
	C83.950867,204.055161 84.843742,203.364426 85.579971,203.254929 
	C86.143761,203.601990 86.502357,203.743271 86.860954,203.884537 
	C86.907555,203.568604 86.994850,203.252670 86.994926,202.936722 
	C86.998695,187.334991 87.032097,171.733124 86.980461,156.131561 
	C86.938179,143.359634 86.793579,130.588043 86.609802,117.826096 
	C86.525276,117.835884 86.470970,117.674591 86.855110,117.617561 
	C87.468781,116.342545 87.698311,115.124557 87.945740,113.942444 
	C87.963638,113.978310 87.883476,113.977249 88.172836,113.805969 
	C88.617470,112.998535 88.772743,112.362373 88.961594,111.389359 
	C90.729752,108.840919 92.250839,106.413651 94.232727,104.451912 
	C109.973701,88.870941 125.756012,73.330902 141.635727,57.891533 
	C145.708588,53.931622 150.159180,50.429684 147.069199,43.743034 
	C146.560791,42.642822 146.979919,41.110668 146.982498,39.778164 
	C147.008972,26.176170 156.519821,13.998389 169.419296,11.046341 
	C183.573792,7.807083 197.594757,14.166721 203.830475,26.654581 
	C210.068268,39.146580 207.041260,54.696636 196.470764,63.301601 
	C185.258774,72.428772 173.172943,72.146332 160.441360,66.020538 
	C148.992203,77.500542 137.438965,89.015564 125.967987,100.611954 
	C118.719994,107.939171 111.594864,115.387924 104.049500,123.053131 
	C103.462959,124.104355 103.048958,124.884361 103.047928,125.664909 
	C103.009453,154.923248 102.988342,184.181702 103.078354,213.439789 
	C103.081993,214.624115 104.183395,215.805084 104.868774,217.361725 
	C105.163185,222.216476 107.889679,224.095978 111.730232,226.143631 
	C127.829620,234.727219 143.587921,243.948303 159.529160,252.831772 
	C166.874100,256.924835 174.352570,260.778290 182.220016,264.980469 
	C182.220016,241.498810 182.164627,218.537460 182.286774,195.577026 
	C182.302917,192.543442 181.448410,191.061584 178.626999,189.566788 
	C165.189575,182.447495 159.087143,167.238129 163.952148,153.183212 
	C169.592072,136.889496 182.567093,131.300476 197.937088,134.273026 
	C204.541122,135.550232 211.092880,137.584915 215.888092,143.573151 
	C227.268829,157.785324 223.223465,182.136887 204.893295,190.373245 
	C203.715088,190.902649 202.840637,192.108002 201.443268,193.108185 
	C200.707855,194.913513 200.050583,196.608780 200.046127,198.305740 
	C199.985977,221.234955 199.979385,244.164642 200.124008,267.093170 
	C200.132050,268.368958 201.576553,269.635681 202.632324,271.067139 
	C214.951660,281.819244 226.991119,292.410828 238.888000,303.244873 
	C238.640564,303.642822 238.535706,303.798248 238.129974,304.057251 
	C232.549194,308.875885 227.269318,313.590912 221.665009,318.175415 
	C220.176193,317.111542 218.913055,316.277252 217.862228,315.229950 
	C201.722382,299.143707 182.832153,287.190582 162.660904,276.724304 
	C141.078751,265.525909 119.601692,253.910919 99.142891,240.815308 
	C73.000206,224.081451 52.061069,201.146652 31.085556,178.534195 
	C28.304747,175.536377 27.588924,170.623032 25.931667,166.085358 
	C25.963413,134.919556 25.996668,104.265198 25.948648,73.610970 
	C25.946245,72.077103 25.239317,70.544334 24.509586,68.971161 
	C21.046612,67.087364 17.757050,65.484970 14.856136,63.353596 
	C6.658805,57.330803 3.141577,48.530109 1.000000,39.000000 
M26.099819,48.862114 
	C26.099819,48.862114 26.152227,48.721355 26.306942,49.284752 
	C26.653149,49.340672 26.999355,49.396591 27.431057,49.507637 
	C27.431057,49.507637 27.532679,49.503029 27.452356,50.192238 
	C28.052271,50.293026 28.652187,50.393814 29.257059,50.583801 
	C29.257059,50.583801 29.335888,50.541759 29.476238,51.306564 
	C33.716591,53.526943 37.871487,54.225544 41.783401,50.882225 
	C41.783401,50.882225 41.730618,50.620689 42.406555,50.820122 
	C42.851204,50.407822 43.295853,49.995518 43.839329,49.723129 
	C43.839329,49.723129 43.669968,49.748825 44.281250,49.661961 
	C44.490345,49.324791 44.699436,48.987617 45.254559,48.090710 
	C46.313763,46.834969 47.428631,45.621628 48.422913,44.316433 
	C53.828197,37.220951 50.432449,27.203655 42.328976,22.496572 
	C36.066608,18.858936 26.951277,21.281328 22.505665,28.227495 
	C18.559866,34.392715 19.256897,39.669147 25.248188,48.249836 
	C25.582111,48.455307 25.916035,48.660778 26.099819,48.862114 
M164.469299,42.019886 
	C167.820648,53.054607 174.783905,56.688046 183.978592,50.178978 
	C188.958832,46.653389 190.494949,39.752243 187.553711,34.777493 
	C184.668198,29.896992 179.028275,27.121082 174.237549,28.223427 
	C168.045761,29.648155 164.940582,33.718311 164.469299,42.019886 
M202.507385,155.142990 
	C201.011734,154.153076 199.592621,153.014450 198.007401,152.198563 
	C190.493225,148.331085 181.491257,153.175034 180.523193,161.544266 
	C179.779694,167.972076 187.895050,177.227554 193.146927,175.941467 
	C202.630661,173.619095 206.692093,165.213867 202.507385,155.142990 
M183.032288,238.500000 
	C183.032288,246.895065 183.032288,255.290115 183.032288,263.685181 
	C183.260452,263.678528 183.488632,263.671906 183.716797,263.665253 
	C183.716797,239.818954 183.716797,215.972656 183.716797,192.126358 
	C183.488693,192.125946 183.260590,192.125549 183.032486,192.125137 
	C183.032486,207.250092 183.032486,222.375046 183.032288,238.500000 
z"/>
<!-- MAIN HEAD -->
<path fill="#3369E3" opacity="1.000000" stroke="none" 
	d="
M432.025177,400.879578 
	C432.025177,400.879578 431.637848,401.047974 431.066315,401.220856 
	C428.381439,423.590637 426.268066,445.787567 424.161560,468.390442 
	C424.773987,472.867340 425.357391,476.941711 425.989532,481.008514 
	C427.603699,491.392975 429.239624,501.774048 430.894806,512.584473 
	C432.095917,521.614014 433.145203,530.234863 434.484131,538.810547 
	C435.433990,544.894348 436.774902,550.917236 437.941284,556.967285 
	C439.618256,566.663757 441.506073,576.332581 442.785248,586.081238 
	C443.026520,587.919922 441.079590,590.250977 439.739685,592.055908 
	C434.322388,599.353210 428.846344,606.611816 423.199188,613.731812 
	C418.893402,619.160583 414.222046,624.297974 409.849976,629.676025 
	C404.907471,635.755859 400.191956,642.020508 395.233063,648.086487 
	C392.336823,651.629211 389.135345,654.921143 386.110596,658.360474 
	C380.436066,664.812744 374.790131,671.290161 368.505554,678.006226 
	C367.638458,678.623962 367.398163,678.992493 367.157837,679.361023 
	C367.157837,679.361023 367.175690,679.144470 366.921875,679.200073 
	C366.224274,679.980408 365.780518,680.705200 365.336792,681.430054 
	C365.336792,681.430054 365.258148,681.262878 365.021790,681.295410 
	C364.650635,681.703735 364.515839,682.079407 364.381042,682.455139 
	C364.381042,682.455139 364.302307,682.304016 364.053436,682.320801 
	C363.664459,682.711487 363.524323,683.085510 363.384186,683.459473 
	C363.384186,683.459473 363.346863,683.302124 363.048553,683.303467 
	C362.319305,684.031128 361.888367,684.757507 361.457458,685.483887 
	C361.457489,685.483887 361.310852,685.396729 361.064514,685.374146 
	C360.697876,685.729431 360.577576,686.107361 360.457214,686.485291 
	C360.457214,686.485291 360.222107,686.256104 360.029602,686.307739 
	C359.754791,686.731506 359.672516,687.103638 359.590271,687.475769 
	C359.590271,687.475769 359.493835,687.445923 359.168213,687.411438 
	C358.745697,687.747742 358.648773,688.118591 358.551880,688.489380 
	C358.551880,688.489380 358.449310,688.171997 358.144775,688.270630 
	C357.743164,688.742126 357.646057,689.114990 357.548950,689.487854 
	C357.548981,689.487854 357.400085,689.149841 357.120911,689.259521 
	C356.746307,689.740906 356.650848,690.112488 356.555389,690.484131 
	C356.555389,690.484131 356.366577,690.266541 356.107727,690.318481 
	C355.780823,690.735168 355.712738,691.100037 355.644653,691.464844 
	C355.644653,691.464844 355.552185,691.565735 355.191223,691.486084 
	C354.457184,692.104797 354.084106,692.803162 353.711060,693.501465 
	C353.711060,693.501465 353.589111,693.513672 353.218719,693.449951 
	C352.778473,693.748108 352.708618,694.109924 352.638733,694.471741 
	C352.638763,694.471741 352.546783,694.556702 352.193146,694.484924 
	C351.504730,695.098267 351.169952,695.783325 350.835144,696.468445 
	C350.835175,696.468445 350.656189,696.616516 350.252136,696.510132 
	C349.809540,696.745850 349.770996,697.088074 349.732483,697.430237 
	C349.732483,697.430237 349.595123,697.553406 349.221741,697.474609 
	C348.755157,697.501953 348.580627,697.611572 348.584961,697.713623 
	C348.595093,697.951172 348.691376,698.185120 348.752747,698.420532 
	C348.752747,698.420532 348.611389,698.579651 348.230438,698.489868 
	C347.756287,698.505798 347.580261,698.616699 347.586456,698.716309 
	C347.600952,698.951172 347.702301,699.180542 347.768524,699.412170 
	C347.768524,699.412170 347.622070,699.570557 347.231506,699.483887 
	C346.803345,699.742859 346.765686,700.088379 346.728027,700.433960 
	C346.728058,700.433960 346.592194,700.536621 346.217010,700.463745 
	C345.786407,700.746765 345.730988,701.102661 345.675568,701.458496 
	C345.675568,701.458496 345.554199,701.500488 345.196289,701.442139 
	C344.751770,701.750000 344.665131,702.116211 344.578522,702.482483 
	C344.578522,702.482483 344.478394,702.508057 344.141907,702.438721 
	C343.339569,703.071655 342.873688,703.773926 342.407806,704.476196 
	C342.407806,704.476196 342.291138,704.350830 342.048065,704.343018 
	C341.642822,704.703552 341.480652,705.071899 341.318481,705.440308 
	C341.318512,705.440308 341.246643,705.262085 341.017761,705.289551 
	C340.608795,705.673767 340.428680,706.030457 340.248535,706.387146 
	C340.248535,706.387146 340.143463,706.195618 339.908997,706.266602 
	C339.467468,706.749878 339.260437,707.162170 339.053406,707.574402 
	C335.205292,711.300659 331.487762,715.175110 327.472778,718.711914 
	C323.374390,722.322266 318.938507,725.546509 314.737732,729.044678 
	C312.054779,731.278931 309.569000,733.748779 306.914032,736.018555 
	C305.975433,736.820923 304.797577,737.343384 303.364502,738.075256 
	C299.861816,736.088318 296.498932,734.286621 293.642731,731.882812 
	C290.145844,728.939880 287.200287,725.351074 283.790649,722.293274 
	C276.930847,716.141357 269.902802,710.177368 262.978210,704.097107 
	C260.993134,702.354004 259.125061,700.477600 257.287842,698.175659 
	C256.531860,697.151184 255.691437,696.613525 254.850998,696.075806 
	C254.850998,696.075806 254.959198,696.050354 254.880829,695.817444 
	C254.458603,695.403687 254.114761,695.222900 253.770920,695.042053 
	C253.216171,694.617432 252.661438,694.192871 251.948334,693.214355 
	C251.453629,692.453735 251.117279,692.247009 250.780945,692.040283 
	C250.455704,692.062317 250.210037,691.933105 249.916214,691.144531 
	C249.444626,690.438416 249.100815,690.240417 248.756989,690.042480 
	C248.435364,690.073242 248.193192,689.949036 247.913788,689.167603 
	C247.471390,688.456970 247.145660,688.248657 246.819916,688.040344 
	C246.819931,688.040344 246.943939,688.044373 246.952240,687.745117 
	C246.249329,686.994080 245.538101,686.542175 244.826874,686.090332 
	C244.826874,686.090332 244.951584,686.060730 244.873047,685.831787 
	C244.448669,685.417053 244.102844,685.231323 243.757004,685.045532 
	C243.204559,684.611633 242.652115,684.177673 242.050415,683.132019 
	C241.532547,682.130432 241.063934,681.740601 240.595337,681.350769 
	C240.595337,681.350769 240.521194,681.428284 240.589111,681.082031 
	C239.942825,680.353882 239.228607,679.971863 238.514374,679.589905 
	C238.514374,679.589905 238.534637,679.312256 238.634064,679.002686 
	C238.386124,678.532349 238.038757,678.371521 237.691406,678.210693 
	C237.691406,678.210693 237.686325,678.428162 237.683334,678.087280 
	C236.961319,677.323364 236.242279,676.900330 235.523254,676.477295 
	C235.523270,676.477295 235.426651,676.440430 235.537140,676.263184 
	C235.423676,676.055420 235.199738,676.024902 234.975830,675.994385 
	C229.546051,669.758301 224.173187,663.471436 218.664810,657.305603 
	C215.457458,653.715393 211.909744,650.427246 208.737503,646.808289 
	C204.749146,642.258423 200.924088,637.560364 197.146164,632.832336 
	C192.957870,627.590576 188.823029,622.301941 184.808716,616.926392 
	C179.657196,610.028015 174.649002,603.022705 169.210114,595.589355 
	C168.456558,594.789978 168.071960,594.464539 167.687363,594.139160 
	C167.687363,594.139160 167.881912,594.095398 167.828354,593.893311 
	C167.454117,593.480103 167.133438,593.269104 166.812759,593.058044 
	C166.812759,593.058044 166.927673,593.056763 166.960037,592.753967 
	C166.215927,591.686340 165.439438,590.921509 164.662949,590.156677 
	C164.662949,590.156677 164.860550,590.113037 164.821472,589.906799 
	C164.462799,589.485718 164.143188,589.270874 163.823593,589.056030 
	C163.823593,589.056030 163.935379,589.053284 163.971619,588.654785 
	C164.268021,585.810974 164.634430,583.371216 164.761093,580.919067 
	C164.915024,577.938965 164.866882,574.948425 164.906158,571.962402 
	C165.272171,568.249634 165.638168,564.536865 166.401642,560.218262 
	C168.202972,551.893372 169.796188,544.203003 170.970459,536.449097 
	C173.264664,521.300049 175.407883,506.126831 177.454117,490.942139 
	C178.944397,479.883057 181.401978,468.872650 179.921021,457.603119 
	C179.758179,456.364075 178.788025,455.231140 178.192307,454.048981 
	C178.118820,451.970337 178.045334,449.891724 178.330536,447.104736 
	C178.109680,438.275452 177.569977,430.151093 176.880646,422.039459 
	C176.820602,421.333008 175.775650,420.710266 175.188171,420.048615 
	C174.731995,414.599030 174.275787,409.149475 174.195938,403.004486 
	C173.658401,401.243042 172.869583,399.406311 171.810593,399.234497 
	C164.202576,397.999969 156.539719,397.103424 148.494659,396.062439 
	C146.957993,395.821106 145.810257,395.663361 144.685638,395.405121 
	C138.423187,393.966980 132.166336,392.504486 125.907562,391.050323 
	C114.675545,387.738556 104.778847,381.953857 96.428986,373.876465 
	C88.171898,365.888855 81.542732,356.630585 77.177910,345.840759 
	C72.681427,334.725494 67.920990,323.717041 63.491920,312.094971 
	C63.050453,310.047791 62.393120,308.567535 61.735790,307.087250 
	C61.735790,307.087250 61.883205,307.059357 61.921394,306.714783 
	C60.510853,302.626038 59.062126,298.881805 57.613396,295.137604 
	C57.613396,295.137604 57.775776,295.058716 57.867714,294.743408 
	C57.461590,293.385193 56.963531,292.342285 56.465477,291.299347 
	C56.465477,291.299347 56.563427,291.086792 56.748798,290.747437 
	C56.187843,288.972046 55.441521,287.535980 54.695198,286.099915 
	C54.695198,286.099915 54.854084,286.055634 54.896927,285.753204 
	C54.531544,284.660645 54.123310,283.870514 53.715080,283.080383 
	C53.715076,283.080383 53.871586,283.042267 53.907318,282.732574 
	C53.341339,281.290253 52.739628,280.157623 52.137917,279.024994 
	C51.783997,276.526337 52.034733,274.894135 55.163319,276.600647 
	C55.666996,276.875366 56.608643,276.347137 57.853127,276.369263 
	C58.616188,276.691498 58.878586,276.825531 59.145618,276.950500 
	C59.145618,276.950500 59.574287,276.922333 60.015587,277.275970 
	C66.779053,278.755707 73.152946,279.650574 79.413689,281.051208 
	C98.228775,285.260315 116.999733,289.666656 135.787903,293.996063 
	C138.895706,294.872894 142.470245,295.051056 145.024155,296.757080 
	C152.811478,301.958984 160.023163,308.020996 167.797073,313.244995 
	C178.405121,320.373505 184.910034,330.863708 191.821075,341.085419 
	C194.432510,344.947815 195.656952,344.788147 198.936615,341.525177 
	C205.027481,335.465271 211.464691,329.754944 217.667297,323.804840 
	C219.186996,322.346985 220.357635,320.525299 221.839081,318.588379 
	C227.269318,313.590912 232.549194,308.875885 238.618805,304.061707 
	C241.957672,304.001343 244.506821,304.040131 247.350952,304.362854 
	C253.409317,304.461243 259.172699,304.275635 265.325439,304.045654 
	C266.496704,304.029175 267.278625,304.057129 268.356812,304.367249 
	C276.081390,304.461853 283.509705,304.274323 291.403931,304.041046 
	C295.933929,304.025970 299.998016,304.056641 304.355530,304.367188 
	C309.078705,304.460297 313.508545,304.273560 318.327942,304.043335 
	C319.499664,304.030029 320.281769,304.060120 321.360474,304.371277 
	C330.700989,304.768250 339.744873,304.943390 348.788910,304.954865 
	C350.838043,304.957458 352.887939,304.391907 355.290253,304.049805 
	C356.114594,304.039154 356.586151,304.066559 357.233765,304.326660 
	C358.250244,304.410583 359.090637,304.261749 360.354248,304.068298 
	C361.909332,303.995087 363.041260,303.966492 364.173157,303.937927 
	C369.176971,308.364380 374.180817,312.790863 379.505310,317.372986 
	C388.175507,326.997284 396.525085,336.465912 404.874634,345.934540 
	C421.024170,322.193420 438.557068,304.578125 463.358734,294.337830 
	C464.529419,293.568970 465.201385,293.118439 465.873352,292.667908 
	C465.873352,292.667908 465.911713,292.831238 466.249939,292.898376 
	C468.362640,292.612122 470.153442,292.325348 471.908813,291.894318 
	C481.217957,289.608368 490.486572,287.147003 499.831238,285.018860 
	C507.833527,283.196503 515.919434,281.741364 523.968384,280.123810 
	C527.684265,279.381256 531.400146,278.638672 535.985352,277.949463 
	C540.688416,277.739929 544.522278,277.477051 548.598816,277.197540 
	C548.137939,278.849579 547.776794,280.106781 547.436523,281.369598 
	C545.656860,287.974243 543.882385,294.580292 542.106079,301.185883 
	C542.106140,301.185883 542.076599,301.033447 541.810059,301.173767 
	C541.392456,302.263947 541.241333,303.213837 541.090210,304.163757 
	C541.090271,304.163757 541.064453,304.027161 540.790710,304.172058 
	C540.382263,305.274200 540.247559,306.231445 540.112793,307.188660 
	C540.112793,307.188660 540.103760,307.038879 539.830322,307.173859 
	C538.101013,312.290100 536.645264,317.271362 535.189453,322.252625 
	C535.189453,322.252625 535.159058,322.095795 534.903442,322.188110 
	C534.450623,323.131775 534.253418,323.983154 534.056213,324.834534 
	C528.675110,336.075623 523.767517,347.576019 517.789917,358.490479 
	C510.721649,371.396545 500.053101,381.015137 486.794464,387.416016 
	C481.763306,389.844940 476.206696,391.185333 470.125824,392.998474 
	C468.236694,393.291901 467.111328,393.608704 465.587280,393.942841 
	C461.857452,395.134979 458.526276,396.309753 455.195099,397.484558 
	C455.195099,397.484528 455.035889,397.343353 454.667297,397.184509 
	C450.525696,397.673431 446.752686,398.321198 442.526489,398.960999 
	C438.723938,399.595245 435.374542,400.237427 432.025177,400.879578 
M391.491089,433.322205 
	C391.479309,433.717346 391.467529,434.112518 391.259644,434.438385 
	C391.259644,434.438385 391.349365,434.250793 390.732697,434.256561 
	C390.511993,434.569672 390.291260,434.882751 390.063538,435.077759 
	C390.063538,435.077759 390.179443,435.101562 389.329956,434.992554 
	C382.602966,435.329468 375.874542,435.642487 369.150970,436.037750 
	C368.424744,436.080475 367.726532,436.600128 366.631622,437.059204 
	C366.631622,437.059204 366.215912,437.046021 365.641449,437.232971 
	C365.456268,437.577606 365.271088,437.922272 365.095337,438.071869 
	C365.095337,438.071869 365.285522,438.116302 364.742157,438.214203 
	C364.529877,438.680969 364.317596,439.147705 363.475128,439.988220 
	C360.599182,445.016144 357.723267,450.044037 354.474762,455.347168 
	C354.293823,455.601746 354.150177,455.875885 354.036011,456.033600 
	C354.036011,456.033600 354.171997,456.040924 353.502502,456.344818 
	C349.215820,466.589050 346.949188,477.004120 351.119324,488.658356 
	C352.477600,493.071655 353.835876,497.484955 354.705200,502.282898 
	C355.355103,503.306793 356.004974,504.330658 356.637482,505.771759 
	C356.637482,505.771759 356.229034,505.858429 356.052795,506.680084 
	C357.964539,512.434143 359.876282,518.188171 361.968567,524.733826 
	C364.336609,532.476562 366.704651,540.219299 369.072693,547.961975 
	C369.680939,548.094299 370.289185,548.226624 370.897430,548.358948 
	C377.701202,535.518433 384.504974,522.677917 391.807861,509.403534 
	C392.426605,507.532074 393.045349,505.660614 393.498566,503.766418 
	C393.498566,503.766418 393.467224,503.602264 394.227051,503.629089 
	C396.138367,497.707397 398.049683,491.785736 399.904938,485.050659 
	C400.672180,481.676605 401.439423,478.302521 402.909424,474.736359 
	C404.292572,466.538940 405.675720,458.341492 407.614197,449.525635 
	C408.386597,441.338135 409.428711,433.163727 409.826111,424.958069 
	C410.049683,420.341492 409.209076,415.673370 408.197662,410.789429 
	C405.480896,411.204834 402.764160,411.620239 399.443726,412.576294 
	C399.022186,417.133209 398.600677,421.690125 398.163818,426.101807 
	C398.163818,426.101807 398.304047,426.142578 397.585938,426.215454 
	C396.764832,427.876282 395.943695,429.537109 395.094177,431.073120 
	C395.094177,431.073120 395.221924,431.081299 394.630554,431.205322 
	C394.447174,431.546082 394.263824,431.886841 394.066589,432.067413 
	C394.066589,432.067413 394.226624,432.082642 393.634583,432.197174 
	C393.445557,432.527252 393.256531,432.857361 393.033295,433.096863 
	C393.033295,433.096863 393.129517,433.086273 392.568268,432.982422 
	C392.379395,432.982758 392.190491,432.983063 391.491089,433.322205 
M393.981873,364.025513 
	C393.981873,364.025513 393.965942,364.169769 393.813416,363.597778 
	C393.483521,363.412628 393.153656,363.227478 392.964874,363.035339 
	C392.964874,363.035339 392.956543,363.176361 392.830231,362.594879 
	C392.498291,362.409485 392.166382,362.224091 391.970093,362.029480 
	C391.970093,362.029480 391.966339,362.165405 391.816528,361.598419 
	C391.489746,361.410004 391.162933,361.221588 390.970886,361.032074 
	C390.970886,361.032074 390.958801,361.166290 390.836670,360.582977 
	C390.500275,360.402771 390.163910,360.222565 389.965546,360.033752 
	C389.965546,360.033752 389.959351,360.171906 389.827759,359.592010 
	C389.493317,359.408844 389.158875,359.225647 388.967438,359.028778 
	C388.967438,359.028778 388.967865,359.172424 388.802246,358.610413 
	C388.477509,358.418915 388.152740,358.227448 387.970306,358.029968 
	C387.970306,358.029968 387.963226,358.172241 387.809906,357.605499 
	C387.482697,357.415619 387.155457,357.225739 386.970551,357.029602 
	C386.970551,357.029602 386.964020,357.171906 386.808289,356.606842 
	C386.481903,356.415588 386.155548,356.224335 385.971710,356.030792 
	C385.971710,356.030792 385.961182,356.172943 385.817963,355.601074 
	C385.489166,355.412292 385.160370,355.223511 384.971344,355.031219 
	C384.971344,355.031219 384.961945,355.170746 384.823334,354.594818 
	C384.493103,354.409576 384.162872,354.224335 383.968536,354.028198 
	C383.968536,354.028198 383.966461,354.164551 383.818939,353.585358 
	C383.478119,353.402710 383.137299,353.220093 382.083252,353.016327 
	C381.728363,353.282898 381.213257,353.472168 381.041870,353.827271 
	C376.309570,363.631958 371.601257,373.448273 366.913116,383.274200 
	C363.807068,389.784180 360.749359,396.317200 357.650269,402.830475 
	C352.767273,413.092957 348.135895,423.439240 346.799683,435.006409 
	C349.506195,431.669830 351.246368,427.670441 353.988861,424.552826 
	C359.374603,418.430450 364.779663,412.097198 371.192993,407.175354 
	C376.790558,402.879547 382.177429,397.869232 390.064636,396.767761 
	C396.412811,395.881226 402.472260,392.927063 409.251678,390.673370 
	C408.070099,387.490204 406.888489,384.307037 405.857727,381.098083 
	C405.857727,381.098083 405.831207,381.248779 405.919739,380.548676 
	C405.534180,380.054077 405.148590,379.559509 404.909973,379.064148 
	C404.909973,379.064148 404.876953,379.207336 404.937286,378.510345 
	C404.541840,378.032776 404.146362,377.555237 403.897675,377.071014 
	C403.897675,377.071014 403.866272,377.214539 403.943756,376.510315 
	C403.516968,376.044800 403.090210,375.579254 402.841736,375.099762 
	C402.841736,375.099762 402.798889,375.273407 402.929199,374.554718 
	C402.445312,374.212463 401.961426,373.870178 401.547699,373.194153 
	C401.547699,373.194153 401.886749,373.231537 401.695282,372.628326 
	C401.318024,372.457672 400.940765,372.286987 400.074829,371.656952 
	C398.365387,369.538605 396.655945,367.420258 394.762054,364.721283 
	C394.453674,364.487152 394.145264,364.252991 393.981873,364.025513 
M260.273376,588.324097 
	C260.597748,588.500488 260.922119,588.676941 261.269592,588.609009 
	C261.269592,588.609009 261.514923,588.601257 261.349640,589.304321 
	C262.300964,589.855408 263.252258,590.406433 264.641968,591.028442 
	C264.931549,591.193298 265.065674,591.442017 265.191803,592.361145 
	C265.524109,592.557739 265.856445,592.754272 266.041077,592.956909 
	C266.041077,592.956909 266.053314,592.809570 266.199097,593.394287 
	C266.547974,593.569824 266.896820,593.745422 267.058929,593.966736 
	C267.058929,593.966736 267.031372,593.776489 267.302917,594.414795 
	C267.726654,594.597351 268.150421,594.779846 269.172699,595.090820 
	C270.239838,596.309692 271.094147,597.879150 272.414612,598.680847 
	C276.174896,600.963928 280.125122,602.934265 284.405457,605.655212 
	C294.203430,609.290283 304.276642,608.418579 314.306305,607.238586 
	C316.517365,606.978455 318.582428,605.477417 320.735596,604.589355 
	C320.735596,604.589355 320.781128,604.598999 321.384613,604.876465 
	C321.923431,604.600220 322.462250,604.324036 323.690216,603.929810 
	C326.815643,601.679382 330.122681,599.639404 333.027100,597.132812 
	C338.388794,592.505554 343.689392,587.778320 348.675171,582.755005 
	C351.870483,579.535583 355.308685,576.266663 353.970367,570.684570 
	C352.371918,564.017395 351.332397,557.216187 350.001465,549.700012 
	C347.022095,539.129395 344.042725,528.558716 341.024353,517.192810 
	C338.314453,507.452637 335.590942,497.716217 332.897736,487.971436 
	C328.384277,471.640350 324.311859,455.240417 324.990814,438.080536 
	C325.084717,435.707825 324.930634,433.325287 325.037598,430.153046 
	C325.070526,429.158295 324.820129,428.045319 325.178528,427.186340 
	C331.405396,412.262390 337.610321,397.327728 344.039642,382.490570 
	C346.635284,376.500549 349.895905,370.801849 352.606537,364.857758 
	C356.380920,356.581116 359.667023,348.072357 363.685822,339.921143 
	C365.382538,336.479828 364.547424,334.607239 362.050201,332.419586 
	C359.868652,330.508484 357.972961,328.271118 355.783203,325.616302 
	C355.466827,325.420135 355.150452,325.223938 354.976135,325.014221 
	C354.976135,325.014221 354.981537,325.156830 354.806519,324.606232 
	C354.485657,324.408752 354.164764,324.211273 354.001465,323.990387 
	C354.001465,323.990387 354.027466,324.147583 353.538574,323.441284 
	C352.896912,323.298462 352.255371,323.031158 351.613617,323.030701 
	C318.337463,323.007294 285.061279,322.989014 251.785309,323.070435 
	C250.517609,323.073547 249.252335,324.062836 247.829880,325.201538 
	C245.543701,327.293579 243.132355,329.266754 241.003998,331.508636 
	C238.512024,334.133514 236.747253,336.756958 239.074936,340.826599 
	C241.909393,345.782257 243.917557,351.209167 246.303864,356.422760 
	C252.931274,370.902191 259.718048,385.311005 266.150604,399.876373 
	C270.376190,409.444427 274.096527,419.235596 278.038239,429.872833 
	C278.024811,436.303192 278.120819,442.736237 277.962799,449.163055 
	C277.839752,454.166595 277.400299,459.162384 277.074982,464.025757 
	C277.074982,464.025757 277.213379,464.022156 276.526245,464.392914 
	C276.118561,465.786102 275.562592,467.155090 275.330231,468.576935 
	C274.542450,473.397034 273.869202,478.235840 273.129883,483.837921 
	C272.515442,485.922363 271.901001,488.006805 270.579498,490.407501 
	C270.439453,491.683319 270.299438,492.959106 270.132935,494.054626 
	C270.132935,494.054626 270.314545,494.069519 269.604980,494.334076 
	C267.768921,501.313293 265.932861,508.292511 264.220459,516.030884 
	C263.032135,520.041077 261.843811,524.051270 259.979095,528.210388 
	C258.332764,534.495728 256.686462,540.781006 255.052689,547.852844 
	C251.578003,557.123108 250.233978,566.759705 250.263123,577.217712 
	C250.571259,577.468506 250.879395,577.719238 251.033813,577.964539 
	C251.033813,577.964539 251.054214,577.812073 251.185501,578.393494 
	C251.519653,578.577515 251.853790,578.761536 252.044815,578.955139 
	C252.044815,578.955139 252.054764,578.812073 252.183762,579.393677 
	C252.516769,579.577942 252.849777,579.762207 253.040543,579.961365 
	C253.040543,579.961365 253.042999,579.818359 253.205261,580.380737 
	C253.530411,580.572632 253.855576,580.764587 254.038208,580.961426 
	C254.038208,580.961426 254.050095,580.819336 254.187729,581.393372 
	C254.515915,581.578552 254.844101,581.763733 255.059448,581.950317 
	C255.059448,581.950317 255.081696,581.839722 255.034973,582.523193 
	C255.495529,582.852783 255.956085,583.182373 256.388885,583.763428 
	C256.388885,583.763428 256.135895,583.760498 256.290131,584.329834 
	C256.633057,584.476990 256.975983,584.624084 257.351654,584.536194 
	C257.351654,584.536194 257.588898,584.533386 257.337341,585.213745 
	C258.039642,585.608704 258.741943,586.003662 259.444916,586.705811 
	C259.444916,586.705811 259.141083,586.751160 259.267609,587.321045 
	C259.597687,587.493896 259.927765,587.666748 260.140320,587.896545 
	C260.140320,587.896545 260.130798,587.766296 260.273376,588.324097 
M267.419403,677.651611 
	C267.419403,677.651611 267.340881,677.603943 267.310181,678.251404 
	C267.684631,678.352112 268.059113,678.452820 268.431519,678.653381 
	C268.431519,678.653381 268.351685,678.593262 268.311646,679.220337 
	C268.663422,679.370972 269.015198,679.521606 269.437561,679.502563 
	C269.437561,679.502563 269.620941,679.515320 269.411163,680.180359 
	C269.989532,680.427551 270.567902,680.674744 271.061493,680.936157 
	C271.061493,680.936157 271.074707,680.851196 271.039154,681.572693 
	C271.751648,682.014587 272.464142,682.456543 273.063263,682.923035 
	C273.063263,682.923035 273.069275,682.807190 273.182617,683.394409 
	C273.520630,683.573853 273.858643,683.753296 274.055878,683.943909 
	C274.055878,683.943909 274.069000,683.803284 274.186096,684.390747 
	C274.523071,684.570740 274.860046,684.750732 275.056305,684.943237 
	C275.056305,684.943237 275.068329,684.802490 275.190338,685.392456 
	C275.533264,685.566101 275.876190,685.739807 276.069977,685.929260 
	C276.069977,685.929260 276.084717,685.780029 276.202148,686.370483 
	C276.542847,686.555725 276.883545,686.740967 277.052795,686.952759 
	C277.052795,686.952759 277.047699,686.779297 277.261627,687.380005 
	C277.639160,687.560425 278.016724,687.740784 279.014587,688.109314 
	C286.977386,695.546692 294.940186,702.984009 302.643951,710.179382 
	C308.958862,704.848145 314.823608,700.236389 320.289795,695.192566 
	C326.508911,689.454102 332.341156,683.298218 338.397156,677.380737 
	C347.633118,668.356018 357.004700,659.467896 366.128784,650.332153 
	C369.001831,647.455444 371.177490,643.895020 373.829712,640.781555 
	C377.310120,636.695862 380.970367,632.763977 384.507721,628.726013 
	C387.252502,625.592712 389.900024,622.374390 392.640198,619.236877 
	C396.362274,614.975098 400.362793,610.934265 403.828186,606.475586 
	C409.562103,599.098206 414.964142,591.462769 421.318542,583.737915 
	C421.885468,582.480835 423.080902,581.135193 422.918182,579.981018 
	C421.784973,571.943237 420.370209,563.945129 419.045807,555.058594 
	C417.821442,546.594238 416.731354,538.107483 415.321655,529.674133 
	C414.496399,524.737000 413.161530,519.885132 411.969604,514.931519 
	C411.969604,514.931519 412.028473,514.842102 411.764008,514.466614 
	C411.648376,514.219971 411.532745,513.973389 411.417114,513.726746 
	C411.275604,514.138245 411.134094,514.549744 411.010925,514.984863 
	C411.010925,514.984863 410.984222,514.998230 410.462463,515.320557 
	C410.345062,515.710510 410.227692,516.100403 410.050415,517.189514 
	C405.367737,526.380615 401.114288,535.825195 395.878937,544.689880 
	C390.871948,553.167969 384.725647,560.965271 379.308716,569.211914 
	C376.004395,574.242371 371.246643,578.101196 369.506073,584.505554 
	C368.353455,588.746399 364.567108,592.478455 361.393463,595.915283 
	C356.420105,601.301086 351.249329,606.582825 345.625366,611.263794 
	C341.486908,614.708313 336.490509,617.122131 331.140167,620.073914 
	C329.783630,620.786560 328.427063,621.499207 327.061066,622.082642 
	C327.061066,622.082642 327.188660,622.104675 326.331482,622.026367 
	C321.937164,622.686829 317.556030,623.785278 313.145782,623.918335 
	C303.421478,624.211670 293.682526,624.018250 283.176880,623.976929 
	C277.976105,621.909973 272.459442,620.390564 267.662689,617.623291 
	C262.790619,614.812500 258.537720,610.879333 254.185684,607.232361 
	C250.965210,604.533569 247.818192,601.688843 245.002457,598.579529 
	C241.214905,594.397034 235.988754,590.385071 234.632996,585.412903 
	C232.850632,578.876221 228.354599,574.794739 225.071182,569.674744 
	C219.602707,561.147339 213.661194,552.923401 207.935181,543.781250 
	C206.818237,541.975647 205.701294,540.169983 204.597458,538.290894 
	C204.597458,538.290894 204.628693,538.223145 204.857025,537.535828 
	C204.142151,536.726990 203.427261,535.918152 202.868927,535.086548 
	C202.868927,535.086548 202.844284,535.242737 202.939484,534.533264 
	C202.520386,534.055420 202.101288,533.577637 201.854218,533.082214 
	C201.854218,533.082214 201.821655,533.252075 201.982971,532.495178 
	C201.227921,531.362915 200.472870,530.230652 199.869797,529.075623 
	C199.869797,529.075623 199.847961,529.227722 199.982162,528.524414 
	C199.297470,527.372131 198.612778,526.219910 197.337921,524.640686 
	C196.844269,522.963928 196.566010,521.178589 195.792068,519.643127 
	C195.113968,518.297791 193.879303,517.232971 192.137741,516.207764 
	C191.709000,518.386902 191.211365,520.555054 190.862488,522.746948 
	C188.247406,539.176941 185.583740,555.600037 183.133179,572.054749 
	C182.649704,575.301086 183.022446,578.674927 183.327087,582.615662 
	C192.360489,593.829163 201.382690,605.051758 210.431549,616.252808 
	C215.784515,622.878906 220.921143,629.704529 226.623795,636.016968 
	C233.155350,643.247009 240.206223,650.007874 246.658249,657.222900 
	C246.925507,657.269409 247.192764,657.315918 247.471588,657.502747 
	C247.471588,657.502747 247.342239,657.558533 247.316666,658.219971 
	C247.697937,658.358276 248.079193,658.496521 248.323517,658.562195 
	C248.323517,658.562195 248.463226,658.495056 248.326904,659.217712 
	C249.054626,659.646118 249.782364,660.074585 250.462997,660.659302 
	C250.462997,660.659302 250.330399,660.564087 250.316772,661.224243 
	C250.697098,661.369690 251.077423,661.515137 251.290665,661.759460 
	C251.290665,661.759460 251.297760,661.565491 251.318054,662.226135 
	C251.698593,662.373413 252.079132,662.520691 252.276321,662.669373 
	C252.276321,662.669373 252.389603,662.525208 252.296112,663.242859 
	C253.005554,663.744141 253.714996,664.245422 254.206818,664.821472 
	C254.206818,664.821472 254.212997,664.591492 254.300140,665.240601 
	C254.674606,665.410767 255.049057,665.580872 255.206665,665.807983 
	C255.206665,665.807983 255.235779,665.585693 255.300461,666.237732 
	C255.673233,666.415710 256.046021,666.593750 256.189087,666.824158 
	C256.189087,666.824158 256.215668,666.590027 256.300812,667.239380 
	C256.674530,667.413635 257.048248,667.587830 257.196136,667.814392 
	C257.196136,667.814392 257.226410,667.584534 257.301910,668.236328 
	C257.675964,668.410828 258.049988,668.585388 258.198364,668.814209 
	C258.198364,668.814209 258.227203,668.583923 258.302856,669.235596 
	C258.677399,669.409790 259.051941,669.583984 259.200043,669.771606 
	C259.200043,669.771606 259.276978,669.558167 259.271881,670.282349 
	C260.007172,670.728210 260.742462,671.174072 261.329681,671.748108 
	C261.329681,671.748108 261.298767,671.554688 261.307617,672.213989 
	C261.682434,672.355652 262.057251,672.497314 262.299316,672.721130 
	C262.299316,672.721130 262.339539,672.570312 262.309784,673.225342 
	C262.684265,673.351868 263.058716,673.478394 263.359741,673.721619 
	C263.359741,673.721619 263.325165,673.588135 263.312927,674.232910 
	C263.683563,674.357361 264.054230,674.481812 264.477875,674.483337 
	C264.477875,674.483337 264.611755,674.484436 264.364716,675.185059 
	C265.077942,675.551453 265.791168,675.917847 266.534637,676.518066 
	C266.534637,676.518066 266.321289,676.618469 266.308533,677.256348 
	C266.675171,677.357727 267.041779,677.459045 267.419403,677.651611 
M214.684067,435.618500 
	C213.978851,435.450928 213.273636,435.283386 212.179840,435.189575 
	C212.179840,435.189575 211.923080,434.888733 211.673050,434.529755 
	C211.404282,434.405701 211.162109,434.242279 210.257614,433.934052 
	C202.970139,428.499908 203.025101,420.132599 201.536743,411.661041 
	C199.381424,411.776062 197.134827,411.895966 194.276764,412.584198 
	C194.904892,421.062469 195.533020,429.540741 196.032043,437.992950 
	C196.032043,437.992950 196.067337,437.866058 195.976181,438.750854 
	C196.257706,441.477509 196.539230,444.204132 196.955002,447.706085 
	C197.568604,450.148041 198.182220,452.589996 198.145370,455.189117 
	C198.671967,459.667267 199.070709,464.166229 199.795792,468.612000 
	C200.043274,470.129425 201.110550,471.513092 201.987091,473.774353 
	C207.365875,500.878754 218.807892,525.305664 235.007660,549.047546 
	C237.647858,540.306274 239.968857,532.621826 242.954132,524.724548 
	C244.638397,518.493225 246.322647,512.261902 248.596085,505.582275 
	C249.911041,500.969849 251.160828,496.337616 252.554596,491.749146 
	C255.418396,482.321106 255.748795,472.864532 252.841690,463.414215 
	C252.359146,461.845673 251.107178,460.513824 250.000351,458.328430 
	C247.623917,453.643738 245.625000,448.708496 242.739624,444.361603 
	C240.784012,441.415436 237.583008,439.295959 234.400620,436.261871 
	C229.230591,436.556274 224.060547,436.850677 218.991348,437.385651 
	C218.991348,437.385651 218.766418,437.517761 218.616714,436.733765 
	C217.348618,436.541473 216.080536,436.349182 214.977127,436.182068 
	C214.977127,436.182068 214.918701,436.338074 214.684067,435.618500 
M445.893646,379.084961 
	C454.587280,376.764648 463.280914,374.444366 472.670807,371.841888 
	C484.118011,368.066162 492.851654,360.175812 499.424316,350.826874 
	C505.315582,342.447174 508.998596,332.438843 513.122559,322.918030 
	C516.158569,315.908966 518.334717,308.527435 520.595642,300.632111 
	C517.094177,301.089569 513.513428,301.226898 510.107544,302.070221 
	C502.697723,303.904999 495.377075,306.099731 488.014099,308.020172 
	C488.014099,308.020172 488.141449,308.021759 487.746033,308.232208 
	C487.452301,308.339203 487.233063,308.531158 486.316345,309.037140 
	C480.189606,311.788177 473.770172,314.040497 468.012085,317.419708 
	C461.206421,321.413727 454.592560,325.933258 448.576416,331.028839 
	C438.915100,339.211823 433.479553,350.556366 427.929291,361.624969 
	C425.387268,366.694427 422.421448,372.068298 425.475677,378.137268 
	C426.274628,379.286621 427.168121,381.482666 427.857666,381.420410 
	C433.605072,380.901337 439.314850,379.966248 445.893646,379.084961 
M131.136719,371.791351 
	C131.136719,371.791351 131.183243,371.654755 131.249298,372.411041 
	C131.587570,372.765686 131.862564,373.311035 132.273300,373.447357 
	C145.606430,377.871765 159.286865,380.458618 173.334015,380.930847 
	C174.175446,380.959137 175.053146,379.908417 176.256882,378.631256 
	C178.419693,375.150452 178.221161,371.651520 176.838242,367.875000 
	C172.316788,355.527710 166.213440,344.251312 156.868607,334.754395 
	C146.293457,324.007141 134.749023,315.021820 119.922485,310.894104 
	C113.897392,309.216675 108.006340,307.057770 101.586876,304.502319 
	C95.478600,303.203491 89.380493,301.851166 83.246674,300.686859 
	C82.618156,300.567566 81.775986,301.573792 80.981522,302.831970 
	C86.751038,315.830658 92.865753,328.689728 98.193748,341.866943 
	C103.610153,355.262787 113.682503,363.630859 126.305199,370.674896 
	C127.962952,371.037994 129.620697,371.401123 131.136719,371.791351 
M245.750046,420.720490 
	C249.164658,425.652588 252.579269,430.584686 256.726837,436.575439 
	C256.019714,432.824341 255.942230,429.808228 254.873611,427.197876 
	C250.377899,416.216309 245.664917,405.321198 240.876541,394.462769 
	C237.351456,386.469025 233.619995,378.565338 229.915222,370.652100 
	C227.654922,365.824280 224.842972,361.206482 223.068695,356.213654 
	C221.453110,351.667389 219.739868,352.401978 217.309113,355.159149 
	C212.133881,361.029358 206.357864,366.511963 202.066895,372.975800 
	C198.477432,378.382935 196.649185,384.959229 193.763855,391.661652 
	C216.016479,393.910980 231.940323,404.915009 245.750046,420.720490 
z"/>
<!-- NOSE -->
<path fill="#3369E3" opacity="1.000000" stroke="none" 
	d="
M331.046387,541.791382 
	C327.147675,544.546448 323.110535,547.131958 319.421021,550.143372 
	C318.022247,551.285034 317.424408,553.407898 316.863831,554.383423 
	C323.075256,557.043823 328.838257,558.842163 333.841187,561.888611 
	C337.218567,563.945251 339.782806,567.578796 342.138763,570.911377 
	C342.774170,571.810120 341.855591,575.078796 340.745911,575.738647 
	C331.940613,580.974609 323.426880,587.591858 313.833435,590.389404 
	C301.385132,594.019470 288.460358,592.401306 277.164124,584.340515 
	C273.569946,581.775696 269.465393,579.911377 265.540344,577.828369 
	C259.816864,574.790955 259.767822,572.398376 263.879730,567.475098 
	C269.966553,560.187195 278.204803,557.261841 287.008911,554.458008 
	C284.953369,548.077148 278.182343,546.794800 273.961731,541.959473 
	C268.085144,535.806519 267.754303,534.200806 270.651611,526.607300 
	C271.117401,525.386597 271.432526,524.108398 271.885620,522.525757 
	C271.945618,521.745422 271.937317,521.296204 271.929016,520.846985 
	C271.929016,520.846985 271.954865,520.963501 272.178467,520.889404 
	C272.592224,520.488403 272.782379,520.161438 272.972565,519.834473 
	C272.972565,519.834473 272.976776,519.976990 273.187622,519.902405 
	C273.589233,519.513733 273.779968,519.199646 273.970673,518.885559 
	C273.970673,518.885559 273.968079,518.975281 274.339233,518.959534 
	C276.840637,518.675537 278.970947,518.407349 281.400208,518.409546 
	C295.201843,518.773254 308.704468,518.876953 322.207245,518.923279 
	C322.777039,518.925232 323.348694,518.393372 324.264343,518.068909 
	C325.072021,518.012512 325.534882,517.997375 326.240662,518.263184 
	C327.707550,518.666138 328.931488,518.788147 330.155457,518.910156 
	C330.155457,518.910156 330.069763,518.931519 330.050323,519.242310 
	C330.734131,520.011047 331.437408,520.469055 332.140656,520.927002 
	C332.140656,520.927002 332.055542,520.935547 332.050659,521.234131 
	C332.435425,522.000732 332.825134,522.468628 333.214844,522.936584 
	C333.214844,522.936584 333.083557,522.940552 333.052856,523.302612 
	C333.787659,529.268555 336.186584,534.828918 333.472015,540.525696 
	C333.472015,540.525696 333.373413,540.523987 333.100891,540.380249 
	C332.234406,540.754761 331.640411,541.273071 331.046387,541.791382 
z"/>
</svg>